<svg xmlns="http://www.w3.org/2000/svg" version="1.1" xmlns:xlink="http://www.w3.org/1999/xlink" xmlns:svgjs="http://svgjs.dev/svgjs" width="2000" height="333" viewBox="0 0 2000 333"><g transform="matrix(1,0,0,1,-1.2121212121212466,-2.0032444705548755)"><svg viewBox="0 0 396 66" data-background-color="#ffffff" preserveAspectRatio="xMidYMid meet" height="333" width="2000" xmlns="http://www.w3.org/2000/svg" xmlns:xlink="http://www.w3.org/1999/xlink"><g id="tight-bounds" transform="matrix(1,0,0,1,0.2400000000000091,0.39703944461447804)"><svg viewBox="0 0 395.52 65.20592111077106" height="65.20592111077106" width="395.52"><g><svg viewBox="0 0 561.2969029455944 92.53610834645669" height="65.20592111077106" width="395.52"><g><rect width="6.038351481872126" height="80.34973228346455" x="411.327202832126" y="6.093188031496069" fill="#ef5b2a" opacity="1" stroke-width="0" stroke="transparent" fill-opacity="1" class="rect-yte-0" data-fill-palette-color="primary" rx="1%" id="yte-0" data-palette-color="#ef5b2a"></rect></g><g transform="matrix(1,0,0,1,0,12.788999055118111)"><svg viewBox="0 0 395.52 66.95811023622046" height="66.95811023622046" width="395.52"><g id="textblocktransform"><svg viewBox="0 0 395.52 66.95811023622046" height="66.95811023622046" width="395.52" id="textblock"><g><svg viewBox="0 0 395.52 66.95811023622046" height="66.95811023622046" width="395.52"><g transform="matrix(1,0,0,1,0,0)"><svg width="395.52" viewBox="2.3 -37.35 279.38 47.3" height="66.95811023622046" data-palette-color="#ef5b2a"><path d="M15.85 0.25Q11.95 0.25 8.88-1.45 5.8-3.15 4.05-6.23 2.3-9.3 2.3-13.15L2.3-13.15Q2.3-17 4.05-20.05 5.8-23.1 8.88-24.8 11.95-26.5 15.85-26.5L15.85-26.5Q19.25-26.5 21.93-25.18 24.6-23.85 26.15-21.3L26.15-21.3 23.5-19.5Q22.2-21.45 20.2-22.43 18.2-23.4 15.85-23.4L15.85-23.4Q13-23.4 10.73-22.13 8.45-20.85 7.18-18.5 5.9-16.15 5.9-13.15L5.9-13.15Q5.9-10.1 7.18-7.78 8.45-5.45 10.73-4.17 13-2.9 15.85-2.9L15.85-2.9Q18.2-2.9 20.2-3.85 22.2-4.8 23.5-6.75L23.5-6.75 26.15-4.95Q24.6-2.4 21.9-1.07 19.2 0.25 15.85 0.25L15.85 0.25ZM43.4 0.25Q39.6 0.25 36.55-1.48 33.5-3.2 31.75-6.25 30-9.3 30-13.15L30-13.15Q30-17 31.75-20.05 33.5-23.1 36.55-24.8 39.6-26.5 43.4-26.5L43.4-26.5Q47.2-26.5 50.25-24.8 53.3-23.1 55.02-20.05 56.75-17 56.75-13.15L56.75-13.15Q56.75-9.3 55.02-6.25 53.3-3.2 50.25-1.48 47.2 0.25 43.4 0.25L43.4 0.25ZM43.4-2.9Q46.2-2.9 48.42-4.17 50.65-5.45 51.9-7.8 53.15-10.15 53.15-13.15L53.15-13.15Q53.15-16.15 51.9-18.5 50.65-20.85 48.42-22.13 46.2-23.4 43.4-23.4L43.4-23.4Q40.6-23.4 38.37-22.13 36.15-20.85 34.87-18.5 33.6-16.15 33.6-13.15L33.6-13.15Q33.6-10.15 34.87-7.8 36.15-5.45 38.37-4.17 40.6-2.9 43.4-2.9L43.4-2.9ZM96.8-26.5Q101.75-26.5 104.57-23.65 107.4-20.8 107.4-15.25L107.4-15.25 107.4 0 103.84 0 103.84-14.9Q103.84-19 101.87-21.15 99.9-23.3 96.3-23.3L96.3-23.3Q92.19-23.3 89.84-20.78 87.5-18.25 87.5-13.8L87.5-13.8 87.5 0 83.95 0 83.95-14.9Q83.95-19 81.97-21.15 80-23.3 76.34-23.3L76.34-23.3Q72.3-23.3 69.92-20.78 67.55-18.25 67.55-13.8L67.55-13.8 67.55 0 64 0 64-26.3 67.39-26.3 67.39-21.5Q68.8-23.9 71.3-25.2 73.8-26.5 77.05-26.5L77.05-26.5Q80.34-26.5 82.77-25.1 85.2-23.7 86.4-20.95L86.4-20.95Q87.84-23.55 90.57-25.03 93.3-26.5 96.8-26.5L96.8-26.5ZM125.14-34.35Q122.84-34.35 121.67-33.1 120.49-31.85 120.49-29.4L120.49-29.4 120.49-26.3 128.59-26.3 128.59-23.3 120.59-23.3 120.59 0 117.04 0 117.04-29.55Q117.04-33.15 119.12-35.25 121.19-37.35 124.99-37.35L124.99-37.35Q126.49-37.35 127.89-36.93 129.29-36.5 130.24-35.7L130.24-35.7 129.04-33.05Q127.49-34.35 125.14-34.35L125.14-34.35ZM153.54-26.3L157.09-26.3 157.09-3.2Q157.09 3.5 154.04 6.73 150.99 9.95 144.84 9.95L144.84 9.95Q141.39 9.95 138.31 8.88 135.24 7.8 133.34 5.9L133.34 5.9 135.14 3.2Q136.84 4.9 139.34 5.85 141.84 6.8 144.69 6.8L144.69 6.8Q149.24 6.8 151.39 4.48 153.54 2.15 153.54-2.75L153.54-2.75 153.54-5.8Q152.14-3.5 149.72-2.25 147.29-1 144.24-1L144.24-1Q139.09-1 136.12-3.88 133.14-6.75 133.14-12.3L133.14-12.3 133.14-26.3 136.69-26.3 136.69-12.65Q136.69-8.5 138.74-6.35 140.79-4.2 144.59-4.2L144.59-4.2Q148.74-4.2 151.14-6.73 153.54-9.25 153.54-13.75L153.54-13.75 153.54-26.3ZM193.53-26.5Q198.49-26.5 201.41-23.63 204.34-20.75 204.34-15.25L204.34-15.25 204.34 0 200.78 0 200.78-14.9Q200.78-19 198.74-21.15 196.69-23.3 192.88-23.3L192.88-23.3Q188.63-23.3 186.16-20.78 183.69-18.25 183.69-13.8L183.69-13.8 183.69 0 180.13 0 180.13-26.3 183.53-26.3 183.53-21.45Q184.99-23.85 187.56-25.18 190.13-26.5 193.53-26.5L193.53-26.5ZM225.33-2.9Q227.78-2.9 229.86-3.78 231.93-4.65 233.38-6.35L233.38-6.35 235.38-4.05Q233.63-1.95 231.03-0.85 228.43 0.25 225.28 0.25L225.28 0.25Q221.23 0.25 218.08-1.48 214.93-3.2 213.18-6.25 211.43-9.3 211.43-13.15L211.43-13.15Q211.43-17 213.11-20.05 214.78-23.1 217.73-24.8 220.68-26.5 224.43-26.5L224.43-26.5Q227.93-26.5 230.76-24.9 233.58-23.3 235.26-20.45 236.93-17.6 237.03-13.95L237.03-13.95 215.43-9.75Q216.43-6.55 219.06-4.73 221.68-2.9 225.33-2.9L225.33-2.9ZM224.43-23.45Q221.68-23.45 219.51-22.18 217.33-20.9 216.11-18.63 214.88-16.35 214.88-13.4L214.88-13.4Q214.88-12.65 214.93-12.3L214.93-12.3 233.48-15.9Q232.88-19.2 230.43-21.33 227.98-23.45 224.43-23.45L224.43-23.45ZM251.33 0.25Q248.13 0.25 245.2-0.68 242.28-1.6 240.63-3L240.63-3 242.23-5.8Q243.88-4.5 246.38-3.68 248.88-2.85 251.58-2.85L251.58-2.85Q255.18-2.85 256.9-3.98 258.63-5.1 258.63-7.15L258.63-7.15Q258.63-8.6 257.68-9.43 256.73-10.25 255.28-10.68 253.83-11.1 251.43-11.5L251.43-11.5Q248.23-12.1 246.28-12.73 244.33-13.35 242.95-14.85 241.58-16.35 241.58-19L241.58-19Q241.58-22.3 244.33-24.4 247.08-26.5 251.98-26.5L251.98-26.5Q254.53-26.5 257.08-25.83 259.63-25.15 261.28-24.05L261.28-24.05 259.73-21.2Q256.48-23.45 251.98-23.45L251.98-23.45Q248.58-23.45 246.85-22.25 245.13-21.05 245.13-19.1L245.13-19.1Q245.13-17.6 246.1-16.7 247.08-15.8 248.53-15.38 249.98-14.95 252.53-14.5L252.53-14.5Q255.68-13.9 257.58-13.3 259.48-12.7 260.83-11.25 262.18-9.8 262.18-7.25L262.18-7.25Q262.18-3.8 259.31-1.78 256.43 0.25 251.33 0.25L251.33 0.25ZM280.43-4.15L281.68-1.6Q280.68-0.7 279.23-0.23 277.78 0.25 276.18 0.25L276.18 0.25Q272.48 0.25 270.48-1.75 268.48-3.75 268.48-7.4L268.48-7.4 268.48-32.05 272.03-32.05 272.03-26.3 279.98-26.3 279.98-23.3 272.03-23.3 272.03-7.6Q272.03-5.25 273.18-4.03 274.33-2.8 276.53-2.8L276.53-2.8Q278.93-2.8 280.43-4.15L280.43-4.15Z" opacity="1" transform="matrix(1,0,0,1,0,0)" fill="#ef5b2a" class="wordmark-text-0" data-fill-palette-color="primary" id="text-0"></path></svg></g></svg></g></svg></g></svg></g><g transform="matrix(1,0,0,1,433.17275714612407,0)"><svg viewBox="0 0 128.1241457994703 92.53610834645669" height="92.53610834645669" width="128.1241457994703"><g><svg xmlns="http://www.w3.org/2000/svg" xmlns:xlink="http://www.w3.org/1999/xlink" version="1.1" x="0" y="0" viewBox="4.999731723883638 17.499 90.00082102086878 65.00200000000001" enable-background="new 0 0 100 100" xml:space="preserve" height="92.53610834645669" width="128.1241457994703" class="icon-icon-0" data-fill-palette-color="accent" id="icon-0"><g fill="#301c3b" data-fill-palette-color="accent"><polygon points="69.898,52.5 29.625,52.5 22.95,62.5 76.97,62.5  " fill="#301c3b" data-fill-palette-color="accent"></polygon><path d="M18.936 56.807L23.599 49.82C22.681 47.393 21.055 43.257 19.746 40.616 19.048 39.205 18.262 38.946 17.588 38.883 16.348 38.766 14.765 39.22 12.973 40.148 13.266 40.431 13.549 40.734 13.808 41.066 15.532 43.262 17.486 50.527 18.936 56.807" fill="#301c3b" data-fill-palette-color="accent"></path><path d="M85.69 41.064C86.003 40.664 86.344 40.312 86.701 39.99 85.309 39.37 84.025 39.033 82.897 39.033H82.755C81.368 39.072 80.382 39.658 79.552 40.937 78.619 42.382 77.023 46.489 75.88 49.707L80.782 56.636C82.141 50.381 83.986 43.223 85.69 41.064" fill="#301c3b" data-fill-palette-color="accent"></path><path d="M19.712 32.685C21.719 33.212 23.999 34.555 25.571 37.724 27.011 40.63 28.711 44.961 29.673 47.5H69.766C70.796 44.6 72.667 39.609 74.098 37.401 75.587 35.101 77.594 33.583 79.987 32.919 80.392 32.773 80.817 32.655 81.247 32.548 80.261 25.741 76.769 21.249 65.431 18.974 59.215 17.724 54.611 17.499 50.006 17.499 45.382 17.499 40.758 17.724 34.517 18.974 23.125 21.259 20.362 25.79 19.61 32.65A1 1 0 0 1 19.712 32.685" fill="#301c3b" data-fill-palette-color="accent"></path><path d="M93.239 46.299C92.121 45.82 91.071 46.065 90.363 46.958 90.07 47.334 89.689 48.174 89.264 49.341 88.087 53.521 86.661 59.937 85.612 65.596L85.261 67.5H14.561L14.185 65.64C12.832 58.868 10.928 51.021 9.6 47.183 9.546 47.095 9.497 47.012 9.449 46.954 9.093 46.505 8.092 45.514 6.549 46.153 6.173 46.309 5.782 46.563 5.382 46.91 4.976 48.745 5 51.011 5 53.848 5 66.084 12.383 82.501 12.383 82.501H87.561S94.954 66.084 94.954 53.848C94.954 51.368 95.076 49.278 94.925 47.525 94.353 46.934 93.776 46.523 93.239 46.299" fill="#301c3b" data-fill-palette-color="accent"></path></g></svg></g></svg></g></svg></g><defs></defs></svg><rect width="395.52" height="65.20592111077106" fill="none" stroke="none" visibility="hidden"></rect></g></svg></g></svg>